HIERARCHY
ROOT Hips
{
	OFFSET -0.001795 -0.223333 0.028219
	CHANNELS 6 Xposition Yposition Zposition Zrotation Yrotation Xrotation 
	JOINT LeftUpLeg
	{
		OFFSET 0.069520 -0.091406 -0.006815
		CHANNELS 3 Zrotation Yrotation Xrotation
		JOINT LeftLeg
		{
			OFFSET 0.034277 -0.375199 -0.004496
			CHANNELS 3 Zrotation Yrotation Xrotation
			JOINT LeftFoot
			{
				OFFSET -0.013596 -0.397961 -0.043693
				CHANNELS 3 Zrotation Yrotation Xrotation
				JOINT LeftToe
				{
					OFFSET 0.026358 -0.055791 0.119288
					CHANNELS 3 Zrotation Yrotation Xrotation
					End Site
					{
						OFFSET 0.000000 0.000000 0.000000
					}
				}
			}
		}
	}
	JOINT RightUpLeg
	{
		OFFSET -0.067670 -0.090522 -0.004320
		CHANNELS 3 Zrotation Yrotation Xrotation
		JOINT RightLeg
		{
			OFFSET -0.038290 -0.382569 -0.008850
			CHANNELS 3 Zrotation Yrotation Xrotation
			JOINT RightFoot
			{
				OFFSET 0.015774 -0.398415 -0.042312
				CHANNELS 3 Zrotation Yrotation Xrotation
				JOINT RightToe
				{
					OFFSET -0.025372 -0.048144 0.123348
					CHANNELS 3 Zrotation Yrotation Xrotation
					End Site
					{
						OFFSET 0.000000 0.000000 0.000000
					}
				}
			}
		}
	}
	JOINT Spine
	{
		OFFSET -0.002533 0.108963 -0.026696
		CHANNELS 3 Zrotation Yrotation Xrotation
		JOINT Spine1
		{
			OFFSET 0.005487 0.135180 0.001092
			CHANNELS 3 Zrotation Yrotation Xrotation
			JOINT Spine2
			{
				OFFSET 0.001457 0.052922 0.025425
				CHANNELS 3 Zrotation Yrotation Xrotation
				JOINT Neck
				{
					OFFSET -0.002778 0.213870 -0.042857
					CHANNELS 3 Zrotation Yrotation Xrotation
					JOINT Head
					{
						OFFSET 0.005152 0.064970 0.051349
						CHANNELS 3 Zrotation Yrotation Xrotation
						End Site
						{
							OFFSET 0.000000 0.000000 0.000000
						}
					}
				}
				JOINT LeftShoulder
				{
					OFFSET 0.078845 0.121749 -0.034090
					CHANNELS 3 Zrotation Yrotation Xrotation
					JOINT LeftArm
					{
						OFFSET 0.090977 0.030469 -0.008868
						CHANNELS 3 Zrotation Yrotation Xrotation
						JOINT LeftForeArm
						{
							OFFSET 0.259612 -0.012772 -0.027456
							CHANNELS 3 Zrotation Yrotation Xrotation
							JOINT LeftHand
							{
								OFFSET 0.249234 0.008986 -0.001171
								CHANNELS 3 Zrotation Yrotation Xrotation
								End Site
								{
									OFFSET 0.000000 0.000000 0.000000
								}
							}
						}
					}
				}
				JOINT RightShoulder
				{
					OFFSET -0.081759 0.118833 -0.038615
					CHANNELS 3 Zrotation Yrotation Xrotation
					JOINT RightArm
					{
						OFFSET -0.096012 0.032551 -0.009143
						CHANNELS 3 Zrotation Yrotation Xrotation
						JOINT RightForeArm
						{
							OFFSET -0.253742 -0.013329 -0.021401
							CHANNELS 3 Zrotation Yrotation Xrotation
							JOINT RightHand
							{
								OFFSET -0.255298 0.007772 -0.005559
								CHANNELS 3 Zrotation Yrotation Xrotation
								End Site
								{
									OFFSET 0.000000 0.000000 0.000000
								}
							}
						}
					}
				}
			}
		}
	}
}
MOTION
Frames: 7
Frame Time: 0.050000
0.000000 0.947072 0.000000 -0.189234 -3.243643 3.246399 0.025578 0.083554 0.910058 0.141922 0.019699 -1.044339 6.098356 14.214602 12.741937 0.000000 0.000000 0.000000 -1.908511 0.567679 -5.995299 -1.851651 0.495003 5.282972 -2.316282 -7.817636 5.282302 0.000000 0.000000 0.000000 5.966246 -0.753164 7.053197 -4.312923 1.544568 -28.738464 -2.466221 4.559501 27.215254 8.932595 -3.507833 -24.260281 0.000000 0.000000 0.000000 4.003783 2.199302 -0.472707 -10.306070 -11.651777 -1.328818 15.594505 0.875986 0.109543 0.000000 0.000000 0.000000 4.663016 -13.186510 -5.520769 12.934299 14.176086 -1.257783 -15.913640 9.853432 -0.623845 0.000000 0.000000 0.000000 
0.000039 0.948505 0.000707 -0.299654 -3.544695 3.625308 0.091392 0.148185 1.614762 0.167312 0.082838 -2.904130 6.043432 14.178501 13.573993 0.000000 0.000000 0.000000 -2.292267 0.552001 -5.831320 -2.251463 0.411519 3.074362 -0.683096 -5.402918 8.103566 0.000000 0.000000 0.000000 7.046142 -0.873458 7.341711 -5.125418 1.698295 -29.045694 -2.701034 4.928415 26.131560 8.380709 -3.035022 -24.625398 0.000000 0.000000 0.000000 3.527595 2.095715 -0.458036 -10.441558 -12.346294 -1.287403 13.914746 1.122935 0.118655 0.000000 0.000000 0.000000 5.255965 -13.833336 -5.883565 13.557477 13.605752 -1.257870 -15.971296 11.744649 -0.816029 0.000000 0.000000 0.000000 
-0.000537 0.947645 0.001172 -0.110731 -4.275057 3.212666 0.401605 0.177744 2.011176 -0.856231 0.168218 -2.624473 6.379493 14.633101 13.474532 0.000000 0.000000 0.000000 -2.854986 0.585815 -6.339536 -2.375772 0.471890 3.779340 0.426559 -3.621317 9.117191 0.000000 0.000000 0.000000 7.373412 -0.941978 7.926314 -5.013922 1.670822 -29.741033 -2.899132 5.958590 27.452721 8.882481 -3.251596 -24.819182 0.000000 0.000000 0.000000 4.030103 1.824430 -0.321204 -12.736569 -12.315037 -1.419751 14.940192 0.697845 0.077735 0.000000 0.000000 0.000000 6.607250 -14.485749 -6.352746 14.085802 15.604449 -1.230426 -17.682825 9.771521 -0.666656 0.000000 0.000000 0.000000 
-0.001897 0.947121 0.001736 0.020702 -4.603311 2.863566 0.012902 0.236411 2.486810 -0.349680 0.122027 -2.665315 6.565732 14.898070 13.477310 0.000000 0.000000 0.000000 -2.879756 0.637216 -7.016123 -3.232700 0.657494 4.754115 1.536461 -2.008246 10.418466 0.000000 0.000000 0.000000 7.567615 -1.035790 8.818615 -4.879914 1.642304 -30.542808 -3.677364 5.801158 27.988726 8.358993 -3.023292 -24.775538 0.000000 0.000000 0.000000 3.788097 1.694018 -0.321835 -15.427190 -12.181030 -1.601482 15.976791 0.867523 0.124115 0.000000 0.000000 0.000000 7.325716 -14.510422 -6.500086 14.506231 16.293278 -1.208070 -17.450321 10.497046 -0.751965 0.000000 0.000000 0.000000 
-0.003975 0.946166 0.002043 0.165281 -4.160803 2.374811 0.377133 0.244681 2.708002 -0.908718 0.160367 -2.130143 6.362439 14.588227 13.003539 0.000000 0.000000 0.000000 -3.238313 0.641792 -7.259793 -2.565303 0.673809 6.338296 1.177724 -2.370848 9.764880 0.000000 0.000000 0.000000 7.556638 -1.084371 9.394646 -4.581415 1.589360 -30.352549 -4.051538 5.878841 27.830220 8.581343 -3.080083 -24.897989 0.000000 0.000000 0.000000 2.900170 0.726848 -0.060201 -16.623505 -12.052198 -1.666806 15.751190 -0.256777 -0.002508 0.000000 0.000000 0.000000 7.898989 -14.176952 -6.412060 16.207608 16.032963 -1.237461 -18.550038 11.145628 -0.868229 0.000000 0.000000 0.000000 
-0.006510 0.944684 0.001923 0.253290 -3.665624 1.972540 0.423308 0.204011 2.294917 -0.745145 0.104594 -0.680990 6.289763 14.451551 12.246757 0.000000 0.000000 0.000000 -3.522482 0.648598 -7.546605 -1.861978 0.657355 7.812664 0.784067 -2.781908 9.032065 0.000000 0.000000 0.000000 7.711329 -1.175258 10.189721 -4.939618 1.660066 -30.048609 -4.216190 5.094290 27.674177 8.100474 -2.778602 -25.431764 0.000000 0.000000 0.000000 2.184143 0.775228 -0.134291 -19.035965 -12.212239 -1.790585 15.546084 -0.931486 -0.044457 0.000000 0.000000 0.000000 8.561071 -13.937758 -6.440370 18.107794 16.696238 -1.162910 -18.849965 11.311741 -0.907972 0.000000 0.000000 0.000000 
-0.009121 0.942623 0.000586 0.274027 -3.255455 1.463450 0.678547 0.107218 1.298861 -0.837770 0.050094 1.899994 6.346325 14.485408 11.235967 0.000000 0.000000 0.000000 -3.436693 0.671438 -7.925849 -1.666247 0.728559 9.509158 0.393525 -3.170213 8.175462 0.000000 0.000000 0.000000 7.779501 -1.274848 11.171119 -4.806688 1.644435 -29.506300 -4.446042 5.277631 27.467208 8.083135 -2.722370 -25.210254 0.000000 0.000000 0.000000 0.533992 0.249497 -0.067026 -20.218461 -12.155595 -1.847344 15.722162 -1.573959 -0.123333 0.000000 0.000000 0.000000 9.757698 -13.927665 -6.584749 19.459647 17.143882 -1.128185 -19.714347 11.982311 -1.013142 0.000000 0.000000 0.000000 
